<?xml version="1.0" encoding="UTF-8" standalone="no"?>
<svg
   xmlns:dc="http://purl.org/dc/elements/1.1/"
   xmlns:cc="http://creativecommons.org/ns#"
   xmlns:rdf="http://www.w3.org/1999/02/22-rdf-syntax-ns#"
   xmlns:svg="http://www.w3.org/2000/svg"
   xmlns="http://www.w3.org/2000/svg"
   xmlns:xlink="http://www.w3.org/1999/xlink"
   xmlns:sodipodi="http://sodipodi.sourceforge.net/DTD/sodipodi-0.dtd"
   xmlns:inkscape="http://www.inkscape.org/namespaces/inkscape"
   width="210mm"
   height="297mm"
   viewBox="0 0 210 297"
   version="1.1"
   id="svg325"
   sodipodi:docname="tronchi.svg"
   inkscape:version="1.0.1 (3bc2e813f5, 2020-09-07)">
  <defs
     id="defs319">
    <linearGradient
       inkscape:collect="always"
       id="linearGradient351">
      <stop
         style="stop-color:#ff6600;stop-opacity:1;"
         offset="0"
         id="stop347" />
      <stop
         style="stop-color:#502d16;stop-opacity:1"
         offset="1"
         id="stop349" />
    </linearGradient>
    <linearGradient
       inkscape:collect="always"
       id="linearGradient333">
      <stop
         style="stop-color:#786721;stop-opacity:1;"
         offset="0"
         id="stop329" />
      <stop
         style="stop-color:#2b1100;stop-opacity:1"
         offset="1"
         id="stop331" />
    </linearGradient>
    <linearGradient
       inkscape:collect="always"
       xlink:href="#linearGradient333"
       id="linearGradient335"
       x1="-238.125"
       y1="74.839287"
       x2="-165.55357"
       y2="75.595238"
       gradientUnits="userSpaceOnUse" />
    <radialGradient
       inkscape:collect="always"
       xlink:href="#linearGradient351"
       id="radialGradient353"
       cx="-201.88029"
       cy="-89.946815"
       fx="-201.88029"
       fy="-89.946815"
       r="38.633804"
       gradientTransform="matrix(1.1061103,5.1215914e-4,-1.4065689e-4,0.30329034,21.767986,-61.350088)"
       gradientUnits="userSpaceOnUse" />
    <linearGradient
       inkscape:collect="always"
       xlink:href="#linearGradient333"
       id="linearGradient1284"
       gradientUnits="userSpaceOnUse"
       x1="-238.125"
       y1="74.839287"
       x2="-165.55357"
       y2="75.595238"
       gradientTransform="matrix(1,0,0,-1,0,172.06705)" />
    <radialGradient
       inkscape:collect="always"
       xlink:href="#linearGradient351"
       id="radialGradient1286"
       gradientUnits="userSpaceOnUse"
       gradientTransform="matrix(1.1061103,5.1215914e-4,-1.4065689e-4,0.30329034,21.768071,-53.324688)"
       cx="-201.88029"
       cy="-89.946815"
       fx="-201.88029"
       fy="-89.946815"
       r="38.633804" />
  </defs>
  <sodipodi:namedview
     id="base"
     pagecolor="#ffffff"
     bordercolor="#666666"
     borderopacity="1.0"
     inkscape:pageopacity="0.0"
     inkscape:pageshadow="2"
     inkscape:zoom="0.24748737"
     inkscape:cx="164.44352"
     inkscape:cy="471.21381"
     inkscape:document-units="mm"
     inkscape:current-layer="layer1"
     inkscape:document-rotation="0"
     showgrid="false"
     inkscape:window-width="2560"
     inkscape:window-height="1377"
     inkscape:window-x="-8"
     inkscape:window-y="-8"
     inkscape:window-maximized="1" />
  <metadata
     id="metadata322">
    <rdf:RDF>
      <cc:Work
         rdf:about="">
        <dc:format>image/svg+xml</dc:format>
        <dc:type
           rdf:resource="http://purl.org/dc/dcmitype/StillImage" />
        <dc:title></dc:title>
      </cc:Work>
    </rdf:RDF>
  </metadata>
  <g
     inkscape:label="Livello 1"
     inkscape:groupmode="layer"
     id="layer1">
    <g
       id="g1266"
       inkscape:export-filename="C:\Sviluppo\unity\Flappy\Assets\Sprites\tronco1.png"
       inkscape:export-xdpi="96"
       inkscape:export-ydpi="96">
      <path
         style="fill:#502d16;stroke:none;stroke-width:0.264583px;stroke-linecap:butt;stroke-linejoin:miter;stroke-opacity:1"
         d="m -234.66264,-26.192413 c -16.03617,-9.621703 -25.65788,-6.949009 -25.65788,-6.949009 l -5.34538,-14.967093 -22.45064,-2.138156 -1.0691,6.949009 h 14.43257 l 4.81084,14.432555 5.87994,4.81085 12.2944,-1.069078 10.69078,3.207234 6.41447,4.810851 z"
         id="path387" />
      <path
         style="fill:#552200;stroke:none;stroke-width:0.410428px;stroke-linecap:butt;stroke-linejoin:miter;stroke-opacity:1"
         d="m -236.53353,32.05236 c -22.76588,-12.2919 -30.52698,-12.2919 -30.52698,-12.2919 l -25.35292,-10.6308327 -18.62664,-4.318776 -6.20885,6.6442707 19.14401,1.661067 -13.96998,3.986562 h 23.80072 l 9.31332,3.654349 1.03481,6.976485 11.90035,-3.322137 18.62663,12.624115 10.86553,3.322134 z"
         id="path1212" />
      <path
         style="fill:#552200;stroke:none;stroke-width:0.410427px;stroke-linecap:butt;stroke-linejoin:miter;stroke-opacity:1"
         d="m -228.51545,147.9137 c -22.11966,-12.41307 -26.58078,-16.20564 -31.06152,-15.3655 -8.1861,-7.25177 -16.302,-4.92928 -24.81838,-7.55723 l -18.62664,-4.31878 -6.20885,6.64427 19.14401,1.66107 -13.96998,3.98656 h 23.80073 l 9.31332,3.65435 1.0348,6.97649 11.90035,-3.32214 18.62663,12.62412 10.86553,3.32213 z"
         id="path1212-6"
         sodipodi:nodetypes="cccccccccccccc" />
      <path
         style="fill:#552200;stroke:none;stroke-width:0.410427px;stroke-linecap:butt;stroke-linejoin:miter;stroke-opacity:1"
         d="m -180.40692,102.47788 c 22.11966,-12.41307 26.58078,-16.20564 31.06152,-15.3655 8.1861,-7.25177 16.302,-4.92928 24.81838,-7.55723 l 18.62664,-4.31878 6.208847,6.64427 -19.144007,1.66107 13.96998,3.98656 h -23.80073 l -9.31332,3.65435 -1.0348,6.97649 -11.90035,-3.32214 -18.62663,12.62412 -10.86553,3.32213 z"
         id="path1212-6-6"
         sodipodi:nodetypes="cccccccccccccc" />
      <path
         style="fill:#502d16;stroke:none;stroke-width:0.264583px;stroke-linecap:butt;stroke-linejoin:miter;stroke-opacity:1"
         d="m -173.19066,-28.86511 c 16.03617,-9.621703 25.65788,-6.949009 25.65788,-6.949009 l 5.34538,-14.967093 22.45064,-2.138156 1.0691,6.949009 h -14.43257 l -4.81084,14.432555 -5.87994,4.81085 -12.2944,-1.069078 -10.69078,3.207235 -6.41447,4.810853 z"
         id="path387-8" />
      <path
         id="rect327"
         style="fill:url(#linearGradient335);fill-opacity:1;stroke-width:0.264583"
         d="m -239.6369,-88.446426 h 77.10714 V 252.48808 c -27.46866,8.83139 -53.88881,12.42025 -77.10714,0 z"
         sodipodi:nodetypes="ccccc" />
      <path
         style="fill:url(#radialGradient353);stroke-width:0.266166;fill-opacity:1"
         id="path337"
         sodipodi:type="arc"
         sodipodi:cx="-201.15564"
         sodipodi:cy="-88.207787"
         sodipodi:rx="38.633804"
         sodipodi:ry="11.717261"
         sodipodi:start="0"
         sodipodi:end="6.2628173"
         sodipodi:open="true"
         sodipodi:arc-type="arc"
         d="m -162.52184,-88.207787 a 38.633804,11.717261 0 0 1 -38.43708,11.71711 38.633804,11.717261 0 0 1 -38.82852,-11.597783 38.633804,11.717261 0 0 1 38.04165,-11.835221 38.633804,11.717261 0 0 1 39.21594,11.477254" />
    </g>
    <g
       id="g1282"
       transform="translate(0,-403.04245)"
       inkscape:export-filename="C:\Sviluppo\unity\Flappy\Assets\Sprites\tronco2.png"
       inkscape:export-xdpi="96"
       inkscape:export-ydpi="96">
      <path
         style="fill:#502d16;stroke:none;stroke-width:0.264583px;stroke-linecap:butt;stroke-linejoin:miter;stroke-opacity:1"
         d="m -234.66264,198.25947 c -16.03617,9.6217 -25.65788,6.949 -25.65788,6.949 l -5.34538,14.9671 -22.45064,2.13815 -1.0691,-6.94901 h 14.43257 l 4.81084,-14.43255 5.87994,-4.81085 12.2944,1.06908 10.69078,-3.20724 6.41447,-4.81085 z"
         id="path1268" />
      <path
         style="fill:#552200;stroke:none;stroke-width:0.410428px;stroke-linecap:butt;stroke-linejoin:miter;stroke-opacity:1"
         d="m -236.53353,140.01469 c -22.76588,12.2919 -30.52698,12.2919 -30.52698,12.2919 l -25.35292,10.63084 -18.62664,4.31877 -6.20885,-6.64427 19.14401,-1.66107 -13.96998,-3.98656 h 23.80072 l 9.31332,-3.65435 1.03481,-6.97648 11.90035,3.32213 18.62663,-12.62411 10.86553,-3.32213 z"
         id="path1270" />
      <path
         style="fill:#552200;stroke:none;stroke-width:0.410427px;stroke-linecap:butt;stroke-linejoin:miter;stroke-opacity:1"
         d="m -228.51545,24.153353 c -22.11966,12.41307 -26.58078,16.20564 -31.06152,15.3655 -8.1861,7.25177 -16.302,4.92928 -24.81838,7.55723 l -18.62664,4.31878 -6.20885,-6.64427 19.14401,-1.66107 -13.96998,-3.98656 h 23.80073 l 9.31332,-3.65435 1.0348,-6.97649 11.90035,3.32214 18.62663,-12.62412 10.86553,-3.32213 z"
         id="path1272"
         sodipodi:nodetypes="cccccccccccccc" />
      <path
         style="fill:#552200;stroke:none;stroke-width:0.410427px;stroke-linecap:butt;stroke-linejoin:miter;stroke-opacity:1"
         d="m -180.40692,69.589173 c 22.11966,12.41307 26.58078,16.20564 31.06152,15.3655 8.1861,7.25177 16.302,4.92928 24.81838,7.55723 l 18.62664,4.31878 6.208847,-6.64427 -19.144007,-1.66107 13.96998,-3.98656 h -23.80073 l -9.31332,-3.65435 -1.0348,-6.97649 -11.90035,3.32214 -18.62663,-12.62412 -10.86553,-3.32213 z"
         id="path1274"
         sodipodi:nodetypes="cccccccccccccc" />
      <path
         style="fill:#502d16;stroke:none;stroke-width:0.264583px;stroke-linecap:butt;stroke-linejoin:miter;stroke-opacity:1"
         d="m -173.19066,200.93216 c 16.03617,9.62171 25.65788,6.94901 25.65788,6.94901 l 5.34538,14.96709 22.45064,2.13816 1.0691,-6.94901 h -14.43257 l -4.81084,-14.43255 -5.87994,-4.81085 -12.2944,1.06907 -10.69078,-3.20723 -6.41447,-4.81085 z"
         id="path1276" />
      <path
         id="path1278"
         style="fill:url(#linearGradient1284);fill-opacity:1;stroke-width:0.264583"
         d="m -239.6369,260.51348 c 33.83954,14.24003 54.05424,4.63659 77.10714,0 V -80.421027 c -27.46866,-1.25122 -53.88881,-5.758379 -77.10714,0 z"
         sodipodi:nodetypes="ccccc" />
      <path
         style="fill:url(#radialGradient1286);fill-opacity:1;stroke-width:0.266166"
         id="path1280"
         sodipodi:type="arc"
         sodipodi:cx="-201.15555"
         sodipodi:cy="-80.182388"
         sodipodi:rx="38.633804"
         sodipodi:ry="11.717261"
         sodipodi:start="0"
         sodipodi:end="6.2628173"
         sodipodi:open="true"
         sodipodi:arc-type="arc"
         d="m -162.52174,-80.182388 a 38.633804,11.717261 0 0 1 -38.43709,11.717109 38.633804,11.717261 0 0 1 -38.82852,-11.597783 38.633804,11.717261 0 0 1 38.04165,-11.83522 38.633804,11.717261 0 0 1 39.21594,11.477253" />
    </g>
  </g>
</svg>
